<svg width="800" height="400" xmlns="http://www.w3.org/2000/svg">
 <!-- Created with Method Draw - http://github.com/duopixel/Method-Draw/ -->
 <g>
  <title>background</title>
  <rect fill="#fff" id="canvas_background" height="402" width="802" y="-1" x="-1"/>
  <g display="none" overflow="visible" y="0" x="0" height="100%" width="100%" id="canvasGrid">
   <rect fill="url(#gridpattern)" stroke-width="0" y="0" x="0" height="100%" width="100%"/>
  </g>
 </g>
 <g>
  <title>Layer 1</title>
  <ellipse ry="146" rx="376.5" id="svg_1" cy="200" cx="411" stroke-width="1.5" stroke="#000" fill="#D3BEE7"/>
  <path id="svg_2" d="m767.58728,196.87419c-7.39266,-1.18382 -15.08693,-1.96327 -21.33468,-2.17425l-1.10182,-0.03516c0.25237,-0.52744 0.44319,-0.88494 0.50474,-0.93768c0.13542,-0.10549 0.24622,-0.55089 0.25853,-0.98456c0,-0.24028 0.1108,-1.01973 0.28315,-2.05117c1.69274,0.0586 3.93947,0.10549 6.38932,0.12307c9.46088,0.07033 19.35879,0.79703 26.14822,1.93983c4.04411,0.67982 5.37984,0.65638 2.39446,-0.03516c-3.02231,-0.6974 -11.9846,-1.72299 -19.12489,-2.16838c-4.79507,-0.31061 -11.67067,-0.42782 -15.72094,-0.36335c0.11695,-0.6681 0.25237,-1.41238 0.39395,-2.17425c0.57245,-2.94783 0.76327,-5.91324 0.77558,-11.81477c0.01231,-9.1541 -0.50474,-11.67412 -3.63785,-17.72801c-1.27417,-2.47313 -2.71454,-4.57119 -4.45652,-6.46999c1.52039,-4.2723 1.48346,-10.88881 -0.09233,-16.6907c-1.29879,-4.75873 -1.75429,-5.06347 -6.28468,-4.14923c-3.84098,0.77945 -6.91869,1.8402 -10.86431,3.73314c-1.86509,0.89666 -4.43806,2.29146 -6.30315,3.38737c-4.86278,-1.62922 -9.89176,-2.70755 -15.25928,-3.28774c-5.44139,-0.58605 -18.78018,-0.25786 -23.5137,0.57433c-4.62887,0.81461 -8.79609,1.81089 -12.56937,2.99472c-1.88356,-1.10763 -4.61656,-2.60206 -6.56783,-3.53974c-3.96409,-1.8988 -7.0418,-2.95369 -10.89509,-3.73314c-4.51808,-0.9201 -4.98589,-0.60949 -6.27853,4.14923c-1.60041,5.87808 -1.61272,12.60593 -0.03078,16.86652c0.18466,0.48642 0.29546,0.83219 0.33855,1.10177c-6.41395,7.68898 -8.50679,16.29219 -7.11566,28.30035c0.36317,3.12951 0.92331,6.00115 1.70505,8.63252c-4.09335,-0.02344 -9.91638,0.11721 -14.12053,0.37507c-7.1526,0.45126 -16.11489,1.46512 -19.1372,2.16252c-2.97922,0.69154 -1.65581,0.71498 2.39446,0.04102c6.78943,-1.13694 16.6935,-1.87536 26.14822,-1.93983c1.78507,-0.00586 3.45319,-0.04102 4.8874,-0.07619c0.43088,1.38894 0.92331,2.71341 1.48346,3.97342l-0.04309,0.00586c-6.24775,0.20512 -13.93587,0.98456 -21.32853,2.16838c-5.54603,0.88494 -13.73274,2.65481 -14.68683,3.16467c-1.00333,0.53331 -0.18466,0.4161 4.11182,-0.62121c7.83585,-1.88708 18.02307,-3.33462 30.64167,-4.34263l1.40959,-0.11721c2.70838,5.98943 6.88176,10.56062 12.77865,14.1238c3.60708,2.18597 9.38701,4.43054 12.29853,4.78217c0.8002,0.09377 3.12695,0.55089 5.17055,1.00801c2.04975,0.45712 6.05693,1.1428 8.90074,1.53545l0.06771,0c-0.0554,0.03516 -0.10464,0.0586 -0.15389,0.09377c-3.44703,1.70541 -5.68761,4.36021 -7.19568,8.53875c-0.6771,0.1934 -1.52039,0.45712 -2.43139,0.756c-3.25622,1.05489 -4.52423,1.27173 -7.82354,1.29517c-3.42241,0.02344 -4.23493,-0.11721 -6.27853,-1.03145c-2.97307,-1.31861 -5.74301,-3.74486 -7.58963,-6.63995c-3.08386,-4.84077 -8.41446,-8.2633 -12.85867,-8.2633c-3.79789,0 -4.51808,1.46512 -1.77276,3.60421c4.13644,3.21741 7.22646,6.49929 8.49448,9.00759c0.71403,1.40652 1.80969,3.58077 2.4437,4.82905c0.67094,1.33033 2.10515,3.13537 3.47166,4.38365c3.21313,2.91853 6.31546,4.31333 10.94433,4.9697c3.10233,0.43368 3.8656,0.43368 7.52808,-0.01172c1.76661,-0.20512 3.25622,-0.4454 4.59194,-0.74428c0,1.42996 0,3.07676 0,5.01073c0,10.34964 -0.12926,13.67841 -0.56014,14.65125c-0.81252,1.85192 -2.63452,3.75658 -4.40728,4.61221c-1.76661,0.85563 -2.31444,1.79917 -1.56963,2.66653c0.41241,0.46884 1.20646,0.55089 3.87176,0.38679c5.05975,-0.29889 8.63605,-2.08048 10.45806,-5.22171c0.58476,-1.00801 0.72018,-3.03574 0.90485,-13.58464c0.19697,-11.44556 0.28315,-12.54733 1.06489,-14.18241c0.47397,-0.97284 1.15722,-2.02773 1.53885,-2.3149c0.64016,-0.504 0.68325,0.49228 0.68325,14.18241c-0.00616,15.10837 -0.1662,16.93098 -1.75429,19.83779c-0.35701,0.66224 -1.03411,1.52373 -1.50808,1.93396c-0.83098,0.72084 -1.18184,2.5669 -0.60323,3.12365c0.95409,0.90252 5.73685,-0.51572 8.34675,-2.47313c4.44421,-3.35221 4.97358,-6.12422 5.01051,-26.14369l0.01847,-11.74444l1.34804,0.12307l1.34804,0.11721l0.2216,15.36037c0.25237,17.29433 0.2893,17.54634 3.37932,20.88682c1.75429,1.88708 3.5209,2.93025 6.39548,3.74486c3.84714,1.10177 5.00436,-0.59777 2.41908,-3.5456c-2.81303,-3.20569 -2.94845,-4.43054 -2.79456,-23.40684c0.10464,-12.1664 0.10464,-12.1664 0.92947,-11.45728c1.73583,1.50029 2.06822,3.9617 2.06822,15.37209c0,14.17069 0.42472,15.5186 5.68145,17.99173c2.45601,1.1428 3.14542,1.28345 6.29084,1.29517c3.34855,0.01172 3.55168,-0.03516 3.67478,-0.86735c0.10464,-0.67396 -0.30777,-1.13108 -1.87125,-2.03945c-2.04975,-1.2014 -3.47166,-2.73685 -4.36419,-4.67082c-0.33855,-0.74428 -0.5663,-5.62022 -0.72018,-15.65926c-0.2216,-14.02418 -0.27084,-14.66297 -1.188,-16.86066c-1.23724,-2.95369 -3.12695,-5.28617 -5.52141,-6.83334c-0.6217,-0.38679 -1.24339,-0.70912 -2.04975,-0.9494c0.99102,-0.09377 1.95127,-0.1934 2.88074,-0.32233c9.67632,-1.22484 14.79147,-2.24457 18.89714,-3.75658c8.6853,-3.18225 14.55757,-8.46842 17.73992,-15.964c0.28315,-0.6681 0.5663,-1.30103 0.80636,-1.81089l2.44986,0.1934c12.62476,1.01387 22.81198,2.46141 30.64783,4.35435c4.29648,1.03731 5.11515,1.16038 4.11182,0.61535c-0.93562,-0.49814 -9.12233,-2.26215 -14.66221,-3.14709zm-37.01869,-0.18168c-1.43421,3.00058 -5.43523,6.85678 -8.66683,8.36879c-3.18851,1.50029 -8.18671,2.64309 -13.84969,3.18811c-3.87176,0.37507 -25.46497,0.48642 -29.02895,0.15237c-11.79994,-1.10177 -18.41086,-3.2643 -23.28595,-7.59521c-4.61656,-4.11407 -6.77096,-9.69913 -6.39548,-16.57349c0.24006,-4.30161 1.32957,-7.0033 4.17953,-10.28518c2.59143,-2.98885 5.31828,-4.83491 8.53141,-5.77259c2.68992,-0.78531 10.94433,-0.85563 22.04255,-0.17581c4.90587,0.29889 8.96229,0.29889 13.862,0c11.60912,-0.6974 19.35879,-0.62121 22.22106,0.2227c4.49961,1.32447 8.59912,4.88766 11.06129,9.63466c1.10798,2.1215 1.32342,3.02402 1.48346,6.30004c0.2216,4.51258 -0.59708,9.30647 -2.1544,12.53561zm-58.53803,-19.37481c-6.60476,-1.10177 -10.37804,9.66396 -5.31213,15.16111c2.40677,2.60792 4.5427,3.03574 7.21415,1.4534c2.47448,-1.47099 3.81636,-4.21956 3.81636,-7.78274c0,-4.75287 -2.27135,-8.24572 -5.71838,-8.83177zm40.09024,0.64465c-6.60476,-1.10177 -10.38419,9.65224 -5.31828,15.15525c2.41292,2.60792 4.5427,3.0416 7.22031,1.44754c2.46832,-1.46512 3.81636,-4.21956 3.81636,-7.78274c0,-4.73528 -2.27135,-8.23986 -5.71838,-8.82005zm-17.76454,21.16812c-0.14157,0.43368 -0.83098,1.07833 -1.52654,1.4241c-1.76045,0.86149 -3.02847,0.56261 -4.8874,-1.04903c-1.15106,-0.99042 -1.67427,-1.51201 -2.02513,-0.4747c-0.32624,0.96112 1.72352,2.88923 3.30546,3.48114c1.45268,0.55089 2.49294,0.56847 4.06873,-0.0586c1.56348,-0.62121 2.92998,-2.29146 2.92998,-3.37565c0,-1.00801 -1.52039,-0.96112 -1.86509,0.05274zm-1.95127,-3.36979c1.00333,-0.84391 1.23108,-2.57862 0.27084,-3.49872s-2.91151,-0.77945 -3.67478,0.252c-0.88638,1.20726 -0.41241,2.12736 0.2216,3.10606c0.98487,0.7267 2.30828,0.87321 3.18235,0.14065z" stroke-width="1.5" stroke="#000" fill="#000000"/>
  <text stroke="#000" transform="matrix(2.1179327964782715,0,0,1.954545497894287,-231.97105526924133,-169.38708155602217) " font-weight="normal" xml:space="preserve" text-anchor="start" font-family="Helvetica, Arial, sans-serif" font-size="40" id="svg_3" y="202.9731" x="195.69604" stroke-width="0" fill="#000000">Hi there!</text>
 </g>
</svg>
